<?xml version="1.0" encoding="utf-8"?>
<svg viewBox="0 0 500 500"
  xmlns="http://www.w3.org/2000/svg">
  <g style="">
    <title>eyes</title>
    <path style="stroke: rgb(0, 0, 0); fill: rgb(255,255,255); stroke-width: 3px;" d="M 181.118 153.232 C 162.37 153.232 165.004 161.689 158.958 174.021 C 156.01 180.032 158.857 191.091 161.617 193.905 C 164.656 197.004 168.376 198.991 171.368 202.04 C 172.697 203.396 177.129 201.588 178.459 202.944 C 179.456 203.961 197.722 207.706 200.62 204.752 C 203.371 201.946 208.367 202.275 211.256 199.329 C 213.473 197.07 214.359 193.453 216.576 191.194 C 220.994 186.689 213.916 174.021 213.029 173.117 C 203.078 162.97 191.163 153.232 172.255 153.232"/>
    <path style="stroke: rgb(0, 0, 0); transform-box: fill-box; transform-origin: 50% 50%; fill: rgb(255,255,255); stroke-width: 3px;" d="M 296.33 208.123 C 277.094 208.123 279.798 199.54 273.594 187.024 C 270.569 180.924 273.491 169.7 276.322 166.845 C 279.44 163.7 283.257 161.684 286.326 158.589 C 287.69 157.212 292.237 159.047 293.602 157.672 C 294.624 156.639 313.365 152.838 316.337 155.837 C 319.16 158.684 324.286 158.35 327.25 161.34 C 329.525 163.633 330.433 167.303 332.708 169.596 C 337.241 174.168 329.979 187.024 329.069 187.942 C 318.859 198.24 306.635 208.123 287.236 208.123" transform="matrix(-1, 0, 0, -1, 0.000032, 0.000003)"/>
    <ellipse style="stroke: rgb(0, 0, 0);" cx="189.735" cy="182.98" rx="8.22" ry="7.046"/>
    <ellipse style="stroke: rgb(0, 0, 0);" cx="301.292" cy="179.067" rx="8.22" ry="7.046"/>
  </g>

</svg>