<?xml version="1.0" encoding="utf-8"?><svg viewBox="0 0 500 500" xmlns="http://www.w3.org/2000/svg">
 
  <rect x="0" y="0" width="500" height="500" style="stroke: rgb(0, 0, 0); fill: rgb(255, 102, 0);"/>

 
  <g style="" transform="matrix(1, 0, 0, 1, 2.794066905975342, -25.758405685424805)">
    <title>handsome</title>
    <path style="stroke: rgb(0, 0, 0); stroke-width: 5px; fill: rgb(255, 255, 255);" d="M 117.32 124.266 C 117.32 138.458 118.103 151.686 118.103 165.758 C 118.103 168.004 119.533 178.42 118.103 179.849 C 115.581 182.371 119.248 192.013 116.538 194.723 C 114.841 196.42 117.451 202.421 115.755 204.118 C 114.319 205.553 116.407 210.511 114.972 211.946 C 110.785 216.134 113.406 235.748 113.406 243.261 C 113.406 253.96 113.406 264.659 113.406 275.358 C 113.406 277.105 112.295 285.206 113.406 286.318 C 115.102 288.014 114.058 292.45 115.755 294.147 C 122.743 301.135 123.742 313.877 130.629 320.764 C 147.371 337.505 159.179 365.754 176.818 383.393 C 189.715 396.29 193.977 418.558 205.784 430.364 C 207.48 432.06 213.482 429.451 215.178 431.147 C 219.529 435.498 229.235 435.061 237.881 435.061 C 245.248 435.061 250.58 434.278 258.235 434.278 C 259.482 434.278 265.27 435.072 266.064 434.278 C 269.915 430.427 277.141 431.03 280.938 427.233 C 287.944 420.226 299.823 416.959 306.772 410.01 C 318.51 398.273 321.846 380.845 332.607 370.084 C 337.724 364.967 338.07 355.227 342.784 350.512 C 350.351 342.945 346.365 323.445 353.744 316.067 C 355.612 314.199 354.225 308.54 356.093 306.672 C 360.937 301.828 359.551 288.34 363.921 283.969 C 368.379 279.512 367.759 268.389 372.533 263.615 C 373.941 262.206 372.005 256.315 373.315 255.004 C 376.846 251.473 373.222 240.222 376.447 236.998 C 379.636 233.809 376.57 227.358 378.796 222.906 C 383.716 213.066 381.144 195.34 381.144 183.763 C 381.144 171.499 381.144 159.234 381.144 146.969 C 381.144 143.543 382.233 135.532 380.361 133.66 C 377.653 130.952 382.278 117.22 377.23 117.22"/>
    <path style="stroke-width: 5px; stroke: rgb(0, 0, 0); fill: rgb(255, 255, 255);" d="M 117.32 123.483 C 182.055 123.483 248.918 119.569 311.47 119.569 C 327.795 119.569 344.451 117.22 359.224 117.22 C 361.97 117.22 374.7 115.473 376.447 117.22 C 377.035 117.808 371.788 118.786 378.013 118.786"/>
  </g>

 
  <g style="">
    <title>brows</title>
    <path style="stroke: rgb(0, 0, 0); transform-box: fill-box; transform-origin: 50% 50%;" d="M 273.917 163.037 C 277.776 160.175 284.268 161.293 287.735 158.721 C 292.339 155.304 298.592 152.823 303.007 149.548 C 306.52 146.941 311.378 145.495 314.643 143.073 C 315.304 142.583 319.912 138.35 320.461 138.757 C 326.67 143.363 314.188 150.425 313.188 151.166 C 302.965 158.752 287.363 162.498 271.008 162.498" transform="matrix(-1, 0, 0, -1, -0.000041, -0.000006)"/>
    <path style="stroke: rgb(0, 0, 0);" d="M 169.55 137.575 C 173.409 140.437 179.901 139.319 183.368 141.891 C 187.972 145.308 194.225 147.789 198.64 151.064 C 202.153 153.671 207.011 155.117 210.276 157.539 C 210.937 158.029 215.545 162.262 216.094 161.855 C 222.303 157.249 209.821 150.187 208.821 149.446 C 198.598 141.86 182.996 138.114 166.641 138.114"/>
  </g>


  
  <g style="">
    <title>eyes</title>
    <path style="stroke: rgb(0, 0, 0); fill: rgb(255,255,255); stroke-width: 3px;" d="M 181.118 153.232 C 162.37 153.232 165.004 161.689 158.958 174.021 C 156.01 180.032 158.857 191.091 161.617 193.905 C 164.656 197.004 168.376 198.991 171.368 202.04 C 172.697 203.396 177.129 201.588 178.459 202.944 C 179.456 203.961 197.722 207.706 200.62 204.752 C 203.371 201.946 208.367 202.275 211.256 199.329 C 213.473 197.07 214.359 193.453 216.576 191.194 C 220.994 186.689 213.916 174.021 213.029 173.117 C 203.078 162.97 191.163 153.232 172.255 153.232"/>
    <path style="stroke: rgb(0, 0, 0); transform-box: fill-box; transform-origin: 50% 50%; fill: rgb(255,255,255); stroke-width: 3px;" d="M 296.33 208.123 C 277.094 208.123 279.798 199.54 273.594 187.024 C 270.569 180.924 273.491 169.7 276.322 166.845 C 279.44 163.7 283.257 161.684 286.326 158.589 C 287.69 157.212 292.237 159.047 293.602 157.672 C 294.624 156.639 313.365 152.838 316.337 155.837 C 319.16 158.684 324.286 158.35 327.25 161.34 C 329.525 163.633 330.433 167.303 332.708 169.596 C 337.241 174.168 329.979 187.024 329.069 187.942 C 318.859 198.24 306.635 208.123 287.236 208.123" transform="matrix(-1, 0, 0, -1, 0.000032, 0.000003)"/>
    <ellipse style="stroke: rgb(0, 0, 0);" cx="189.735" cy="182.98" rx="8.22" ry="7.046"/>
    <ellipse style="stroke: rgb(0, 0, 0);" cx="301.292" cy="179.067" rx="8.22" ry="7.046"/>
  </g>



  


  <g style="">
    <path style="stroke: rgb(0, 0, 0); fill: rgba(216, 216, 216, 0); stroke-width: 2px; transform-box: fill-box; transform-origin: 50% 50%;" d="M 445.781 167.262 C 444.907 169.01 437.945 177.431 441.084 180.57 C 444.119 183.605 446.887 204.516 442.65 208.753 C 433.561 217.842 420.946 224.977 411.336 234.588 C 410.238 235.685 399.593 241.633 399.593 241.633 C 399.593 241.633 399.366 236.38 399.593 236.153 C 404.836 230.91 397.119 213.575 402.724 207.97 C 405.04 205.654 402.848 197.669 405.073 195.445 C 409.122 191.395 408.204 180.669 408.204 172.742 C 408.204 154.463 400.518 130.325 412.119 118.724 C 413.325 117.517 424.824 102.464 430.907 108.547 C 435.897 113.537 435.249 117.23 438.736 124.204 C 440.235 127.202 438.028 134.457 440.301 136.73 C 445.662 142.09 445.781 161.226 445.781 170.393" transform="matrix(-1, 0, 0, -1, 0.000066, -0.000036)"/>
    <path style="stroke: rgb(0, 0, 0); fill: rgba(216, 216, 216, 0); stroke-width: 2px;" d="M 105.577 172.02 C 104.703 170.272 97.741 161.851 100.88 158.712 C 103.915 155.677 106.683 134.766 102.446 130.529 C 93.357 121.44 80.742 114.305 71.132 104.694 C 70.034 103.597 59.389 97.649 59.389 97.649 C 59.389 97.649 59.162 102.902 59.389 103.129 C 64.632 108.372 56.915 125.707 62.52 131.312 C 64.836 133.628 62.644 141.613 64.869 143.837 C 68.918 147.887 68 158.613 68 166.54 C 68 184.819 60.314 208.957 71.915 220.558 C 73.121 221.765 84.62 236.818 90.703 230.735 C 95.693 225.745 95.045 222.052 98.532 215.078 C 100.031 212.08 97.824 204.825 100.097 202.552 C 105.458 197.192 105.577 178.056 105.577 168.889"/>
    <path style="stroke: rgb(0, 0, 0); transform-box: fill-box; transform-origin: 50% 50%; fill: rgba(216, 216, 216, 0); stroke-width: 2px;" d="M 411.971 195.897 C 411.971 192.735 414.993 190.527 416.668 188.852 C 424.359 181.161 430.117 155.189 412.754 155.189" transform="matrix(-1, 0, 0, -1, -0.000018, 0.000016)"/>
    <path style="stroke: rgb(0, 0, 0); transform-box: fill-box; transform-origin: 50% 50%; fill: rgba(216, 216, 216, 0); stroke-width: 2px;" d="M 436.938 200.084 C 436.938 215.403 422.893 220.485 414.236 211.827 C 413.844 211.436 413.844 202.824 414.236 202.433 C 419.063 197.605 421.934 190.821 426.761 185.993 C 427.087 185.667 427.087 178.49 426.761 178.164 C 423.045 174.448 412.067 164.495 418.15 152.33 C 419.065 150.5 427.122 136.251 430.676 139.804 C 432.155 141.284 429.893 146.859 429.893 148.416" transform="matrix(-1, 0, 0, -1, -0.000037, -0.000005)"/>
    <path style="stroke: rgb(0, 0, 0); fill: rgba(216, 216, 216, 0); stroke-width: 2px;" d="M 94.617 154.015 C 94.617 138.696 80.572 133.614 71.915 142.272 C 71.523 142.663 71.523 151.275 71.915 151.666 C 76.742 156.494 79.613 163.278 84.44 168.106 C 84.766 168.432 84.766 175.609 84.44 175.935 C 80.724 179.651 69.746 189.604 75.829 201.769 C 76.744 203.599 84.801 217.848 88.355 214.295 C 89.834 212.815 87.572 207.24 87.572 205.683"/>
    <path style="stroke: rgb(0, 0, 0); fill: rgba(216, 216, 216, 0); stroke-width: 2px;" d="M 84.44 154.015 C 84.44 157.177 87.462 159.385 89.137 161.06 C 96.828 168.751 102.586 194.723 85.223 194.723"/>
  </g>


  
  <g>
    <path style="stroke: rgb(0, 0, 0); fill: rgba(216, 216, 216, 0); stroke-width: 3px;" d="M 243.361 170.455 C 243.361 189.962 231.618 205.823 231.618 223.689 C 231.618 227.204 226.794 242.351 230.052 245.609 C 232.792 248.349 236.706 249.915 239.446 252.655 C 244.753 257.961 254.835 243.261 256.669 243.261"/>
  </g>


  
  <g>
    <title>mouth</title>
    <path style="stroke: rgb(0, 0, 0); fill: rgb(255, 255, 255); stroke-width: 5px;" d="M 203.435 294.147 C 207.408 290.173 207.67 284.431 211.264 280.838 C 217.087 275.015 221.907 298.377 229.269 291.015 C 233.716 286.569 234.148 276.05 240.229 273.009 C 246.982 269.633 251.821 283.818 254.321 286.318 C 255.578 287.576 261.008 285.111 261.367 284.752 C 265.682 280.437 270.245 275.091 274.675 270.661 C 278.41 266.926 286.037 282.023 287.201 283.186 C 287.723 283.708 297.604 285.31 298.944 283.969 C 299.302 283.611 301.63 278.044 302.075 278.489 C 305.023 281.437 306.611 302.137 302.858 305.889 C 301.136 307.612 286.811 309.414 284.852 307.455 C 284.037 306.64 279.216 293.52 276.241 296.495 C 273.501 299.235 277.415 308.63 274.675 311.369 C 267.558 318.486 251.15 312.895 244.926 306.672 C 242.447 304.193 242.708 298.974 240.229 296.495 C 239.937 296.202 233.476 296.202 233.184 296.495 C 229.503 300.176 228.482 309.812 226.138 314.501 C 225.69 315.396 219.079 316.053 218.309 315.284 C 214.656 311.631 210.22 308.76 206.566 305.107 C 202.638 301.178 211.736 288.667 203.435 288.667"/>
  </g>


  
  <g>
    <title>hair</title>
    <path style="stroke: rgb(0, 0, 0); fill: rgba(216, 216, 216, 0); stroke-width: 3px;" d="M 130.629 92.169 C 130.629 87.423 135.905 81.412 138.457 78.86 C 146.773 70.544 149.662 59.044 158.029 50.677 C 159.697 49.009 168.989 43.756 168.989 41.283"/>
    <path style="stroke: rgb(0, 0, 0); fill: rgba(216, 216, 216, 0); stroke-width: 3px;" d="M 141.197 96.475 C 141.197 91.729 146.473 85.718 149.025 83.166 C 157.341 74.85 160.23 63.35 168.597 54.983 C 170.265 53.315 179.557 48.062 179.557 45.589"/>
    <path style="stroke: rgb(0, 0, 0); fill: rgba(216, 216, 216, 0); stroke-width: 3px;" d="M 156.072 95.692 C 156.072 90.946 161.348 84.935 163.9 82.383 C 172.216 74.067 175.105 62.567 183.472 54.2 C 185.14 52.532 194.432 47.279 194.432 44.806"/>
    <path style="stroke: rgb(0, 0, 0); fill: rgba(216, 216, 216, 0); stroke-width: 3px;" d="M 171.729 97.257 C 171.729 92.511 177.005 86.5 179.557 83.948 C 187.873 75.632 190.762 64.132 199.129 55.765 C 200.797 54.097 210.089 48.844 210.089 46.371"/>
    <path style="stroke: rgb(0, 0, 0); fill: rgba(216, 216, 216, 0); stroke-width: 3px;" d="M 181.123 98.04 C 181.123 93.294 186.399 87.283 188.951 84.731 C 197.267 76.415 200.156 64.915 208.523 56.548 C 210.191 54.88 219.483 49.627 219.483 47.154"/>
    <path style="stroke: rgb(0, 0, 0); fill: rgba(216, 216, 216, 0); stroke-width: 3px;" d="M 196.781 97.258 C 196.781 92.512 202.057 86.501 204.609 83.949 C 212.925 75.633 215.814 64.133 224.181 55.766 C 225.849 54.098 235.141 48.845 235.141 46.372"/>
    <path style="stroke: rgb(0, 0, 0); fill: rgba(216, 216, 216, 0); stroke-width: 3px;" d="M 206.957 98.04 C 206.957 93.294 212.233 87.283 214.785 84.731 C 223.101 76.415 225.99 64.915 234.357 56.548 C 236.025 54.88 245.317 49.627 245.317 47.154"/>
    <path style="stroke: rgb(0, 0, 0); fill: rgba(216, 216, 216, 0); stroke-width: 3px;" d="M 220.266 98.04 C 220.266 93.294 225.542 87.283 228.094 84.731 C 236.41 76.415 239.299 64.915 247.666 56.548 C 249.334 54.88 258.626 49.627 258.626 47.154"/>
    <path style="stroke: rgb(0, 0, 0); fill: rgba(216, 216, 216, 0); stroke-width: 3px;" d="M 236.706 94.909 C 236.706 90.163 241.982 84.152 244.534 81.6 C 252.85 73.284 255.739 61.784 264.106 53.417 C 265.774 51.749 275.066 46.496 275.066 44.023"/>
    <path style="stroke: rgb(0, 0, 0); fill: rgba(216, 216, 216, 0); stroke-width: 3px;" d="M 245.318 95.692 C 245.318 90.946 250.594 84.935 253.146 82.383 C 261.462 74.067 264.351 62.567 272.718 54.2 C 274.386 52.532 283.678 47.279 283.678 44.806"/>
    <path style="stroke: rgb(0, 0, 0); fill: rgba(216, 216, 216, 0); stroke-width: 3px;" d="M 257.061 96.475 C 257.061 91.729 262.337 85.718 264.889 83.166 C 273.205 74.85 276.094 63.35 284.461 54.983 C 286.129 53.315 295.421 48.062 295.421 45.589"/>
    <path style="stroke: rgb(0, 0, 0); fill: rgba(216, 216, 216, 0); stroke-width: 3px;" d="M 266.455 94.909 C 266.455 90.163 271.731 84.152 274.283 81.6 C 282.599 73.284 285.488 61.784 293.855 53.417 C 295.523 51.749 304.815 46.496 304.815 44.023"/>
    <path style="stroke: rgb(0, 0, 0); fill: rgba(216, 216, 216, 0); stroke-width: 3px;" d="M 275.067 96.475 C 275.067 91.729 280.343 85.718 282.895 83.166 C 291.211 74.85 294.1 63.35 302.467 54.983 C 304.135 53.315 313.427 48.062 313.427 45.589"/>
    <path style="stroke: rgb(0, 0, 0); fill: rgba(216, 216, 216, 0); stroke-width: 3px;" d="M 282.113 99.606 C 282.113 94.86 287.389 88.849 289.941 86.297 C 298.257 77.981 301.146 66.481 309.513 58.114 C 311.181 56.446 320.473 51.193 320.473 48.72"/>
    <path style="stroke: rgb(0, 0, 0); fill: rgba(216, 216, 216, 0); stroke-width: 3px;" d="M 294.638 95.692 C 294.638 90.946 299.914 84.935 302.466 82.383 C 310.782 74.067 313.671 62.567 322.038 54.2 C 323.706 52.532 332.998 47.279 332.998 44.806"/>
    <path style="stroke: rgb(0, 0, 0); fill: rgba(216, 216, 216, 0); stroke-width: 3px;" d="M 309.513 93.343 C 309.513 88.597 314.789 82.586 317.341 80.034 C 325.657 71.718 328.546 60.218 336.913 51.851 C 338.581 50.183 347.873 44.93 347.873 42.457"/>
    <path style="stroke: rgb(0, 0, 0); fill: rgba(216, 216, 216, 0); stroke-width: 3px;" d="M 321.255 92.56 C 321.255 87.814 326.531 81.803 329.083 79.251 C 337.399 70.935 340.288 59.435 348.655 51.068 C 350.323 49.4 359.615 44.147 359.615 41.674"/>
    <path style="stroke: rgb(0, 0, 0); fill: rgba(216, 216, 216, 0); stroke-width: 3px;" d="M 331.433 92.56 C 331.433 87.814 336.709 81.803 339.261 79.251 C 347.577 70.935 350.466 59.435 358.833 51.068 C 360.501 49.4 369.793 44.147 369.793 41.674"/>
    <path style="stroke: rgb(0, 0, 0); fill: rgba(216, 216, 216, 0); stroke-width: 3px;" d="M 341.609 94.126 C 341.609 89.38 346.885 83.369 349.437 80.817 C 357.753 72.501 360.642 61.001 369.009 52.634 C 370.677 50.966 379.969 45.713 379.969 43.24"/>
    <path style="stroke: rgb(0, 0, 0); fill: rgba(216, 216, 216, 0); stroke-width: 3px;" d="M 352.57 92.561 C 352.57 87.815 357.846 81.804 360.398 79.252 C 368.714 70.936 371.603 59.436 379.97 51.069 C 381.638 49.401 390.93 44.148 390.93 41.675"/>
    <path style="stroke: rgb(0, 0, 0); fill: rgba(216, 216, 216, 0); stroke-width: 3px;" d="M 365.095 93.344 C 365.095 88.598 370.371 82.587 372.923 80.035 C 381.239 71.719 384.128 60.219 392.495 51.852 C 394.163 50.184 403.455 44.931 403.455 42.458"/>
  </g>
</svg>