<?xml version="1.0" encoding="utf-8"?><svg viewBox="0 0 500 500" xmlns="http://www.w3.org/2000/svg">
 
  <rect x="0" y="0" width="500" height="500" style="stroke: rgb(0, 0, 0); fill: rgb(255, 215, 0);"/>

 
  <g transform="matrix(1, 0, 0, 1, 1.7251859903335571, -21.05528450012207)" style="">
    <title>ugly</title>
    <path style="stroke-width: 5px; stroke: rgb(0, 0, 0); fill: rgb(255, 255, 255);" d="M 117.32 123.483 C 182.055 123.483 248.918 119.569 311.47 119.569 C 327.795 119.569 344.451 117.22 359.224 117.22 C 361.97 117.22 374.7 115.473 376.447 117.22 C 377.035 117.808 371.788 118.786 378.013 118.786"/>
    <path style="stroke: rgb(0, 0, 0); stroke-width: 5px; fill: rgb(255, 255, 255);" d="M 375.664 117.22 C 375.664 131.586 374.098 142.83 374.098 156.363 C 374.098 158.609 372.669 169.025 374.098 170.455 C 377.952 174.309 372.891 186.47 376.447 190.026 C 378.274 191.853 375.403 198.377 377.23 200.203 C 379.839 202.813 376.186 211.685 378.796 214.295 C 382.038 217.537 380.361 237.313 380.361 243.261 C 380.361 252.394 380.361 261.527 380.361 270.661 C 380.361 273.588 381.133 279.284 379.578 280.838 C 377.621 282.795 379.97 289.058 378.013 291.015 C 376.568 292.46 378.72 298.919 377.23 300.409 C 370.769 306.87 373.048 324.945 366.27 331.724 C 363.53 334.464 366.661 343.075 363.921 345.815 C 360.934 348.803 362.536 356.595 360.007 359.124 C 353.099 366.032 353.402 382.952 346.698 389.655 C 334.039 402.314 323.487 408.698 306.772 417.056 C 293.456 423.714 275.492 425.667 258.235 425.667 C 215.866 425.667 192.265 410.584 170.555 388.873 C 164.916 383.233 163.424 374.697 158.029 369.301 C 153.256 364.528 154.777 353.403 151.766 347.381 C 148.866 341.581 147.852 326.683 147.852 320.764 C 147.852 317.157 148.204 308.59 146.286 306.672 C 144.59 304.976 146.417 299.757 144.72 298.061 C 140.993 294.334 144.43 282.896 140.806 279.272 C 136.967 275.433 139.786 264.943 136.109 261.266 C 134.221 259.379 136.643 252.406 134.543 250.306 C 128.606 244.369 130.729 228.587 126.715 220.558 C 124.617 216.362 128.259 207.228 125.149 204.118 C 123.958 202.927 125.149 194.246 125.149 192.375 C 125.149 180.632 125.149 168.889 125.149 157.146 C 125.149 152.028 127.329 135.84 124.366 132.877 C 123.014 131.525 115.755 125.367 115.755 124.266"/>
  </g>

 
  <g>
    <title>brows</title>
    <path style="stroke: rgb(0, 0, 0); fill: rgb(12, 12, 12);" d="M 154.115 137.605 C 156.09 136.377 163.02 137.118 165.858 137.118 C 174.023 137.118 184.669 136.632 194.041 136.632 C 195.537 136.632 202.482 136.039 203.435 136.632 C 204.05 137.014 216.302 138.366 212.829 140.525 C 211.376 141.428 204.371 142.958 201.086 142.958 C 199.715 142.958 193.348 142.415 192.475 142.958 C 190.909 143.931 186.212 142.958 184.646 143.931 C 181.524 145.872 156.387 145.83 153.332 143.931 C 151.505 142.796 145.764 144.094 143.938 142.958 C 140.618 140.894 148.817 139.925 149.418 139.551 C 151.472 138.275 163.065 137.605 163.509 137.605"/>
    <path style="stroke: rgb(0, 0, 0); fill: rgb(12, 12, 12); transform-box: fill-box; transform-origin: 50% 50%;" d="M 273.196 145.536 C 275.171 146.764 282.101 146.023 284.939 146.023 C 293.104 146.023 303.75 146.509 313.122 146.509 C 314.618 146.509 321.563 147.102 322.516 146.509 C 323.131 146.127 335.383 144.775 331.91 142.616 C 330.457 141.713 323.452 140.183 320.167 140.183 C 318.796 140.183 312.429 140.726 311.556 140.183 C 309.99 139.21 305.293 140.183 303.727 139.21 C 300.605 137.269 275.468 137.311 272.413 139.21 C 270.586 140.345 264.845 139.047 263.019 140.183 C 259.699 142.247 267.898 143.216 268.499 143.59 C 270.553 144.866 282.146 145.536 282.59 145.536" transform="matrix(-1, 0, 0, -1, 0.00002, -0.000002)"/>
  </g>


  
  <g style="">
    <title>eyes</title>
    <path style="stroke: rgb(0, 0, 0); fill: rgb(255,255,255); stroke-width: 3px;" d="M 181.118 153.232 C 162.37 153.232 165.004 161.689 158.958 174.021 C 156.01 180.032 158.857 191.091 161.617 193.905 C 164.656 197.004 168.376 198.991 171.368 202.04 C 172.697 203.396 177.129 201.588 178.459 202.944 C 179.456 203.961 197.722 207.706 200.62 204.752 C 203.371 201.946 208.367 202.275 211.256 199.329 C 213.473 197.07 214.359 193.453 216.576 191.194 C 220.994 186.689 213.916 174.021 213.029 173.117 C 203.078 162.97 191.163 153.232 172.255 153.232"/>
    <path style="stroke: rgb(0, 0, 0); transform-box: fill-box; transform-origin: 50% 50%; fill: rgb(255,255,255); stroke-width: 3px;" d="M 296.33 208.123 C 277.094 208.123 279.798 199.54 273.594 187.024 C 270.569 180.924 273.491 169.7 276.322 166.845 C 279.44 163.7 283.257 161.684 286.326 158.589 C 287.69 157.212 292.237 159.047 293.602 157.672 C 294.624 156.639 313.365 152.838 316.337 155.837 C 319.16 158.684 324.286 158.35 327.25 161.34 C 329.525 163.633 330.433 167.303 332.708 169.596 C 337.241 174.168 329.979 187.024 329.069 187.942 C 318.859 198.24 306.635 208.123 287.236 208.123" transform="matrix(-1, 0, 0, -1, 0.000032, 0.000003)"/>
    <ellipse style="stroke: rgb(0, 0, 0);" cx="189.735" cy="182.98" rx="8.22" ry="7.046"/>
    <ellipse style="stroke: rgb(0, 0, 0);" cx="301.292" cy="179.067" rx="8.22" ry="7.046"/>
  </g>



  
  <g style="">
    <path style="stroke: rgb(0, 0, 0); fill: rgb(255, 255, 255); stroke-width: 2px;" d="M 104.795 204.118 C 104.795 174.273 117.929 139.445 92.269 126.615 C 85.719 123.34 72.186 117.732 64.086 125.832 C 61.998 127.919 60.694 130.79 58.606 132.877 C 57.301 134.182 59.128 138.618 57.823 139.923 C 57.008 140.739 57.008 158.679 57.823 159.495 C 61.998 163.67 62.259 171.759 66.434 175.935 C 66.858 176.359 68.019 184.527 67.217 185.329 C 59.806 192.74 61.049 216.738 68 223.689 C 70.043 225.732 74.873 224.299 76.612 226.038 C 78.245 227.671 84.52 226.821 87.572 226.821 C 99.987 226.821 104.795 212.367 104.795 200.203"/>
    <path style="stroke: rgb(0, 0, 0); fill: rgb(255, 255, 255); stroke-width: 2px; transform-box: fill-box; transform-origin: 50% 50%;" d="M 443.964 144.6 C 443.964 174.445 457.098 209.273 431.438 222.103 C 424.888 225.378 411.355 230.986 403.255 222.886 C 401.167 220.799 399.863 217.928 397.775 215.841 C 396.47 214.536 398.297 210.1 396.992 208.795 C 396.177 207.979 396.177 190.039 396.992 189.223 C 401.167 185.048 401.428 176.959 405.603 172.783 C 406.027 172.359 407.188 164.191 406.386 163.389 C 398.975 155.978 400.218 131.98 407.169 125.029 C 409.212 122.986 414.042 124.419 415.781 122.68 C 417.414 121.047 423.689 121.897 426.741 121.897 C 439.156 121.897 443.964 136.351 443.964 148.515" transform="matrix(-1, 0, 0, -1, 0.000035, 0.000008)"/>
    <path style="stroke: rgb(0, 0, 0); fill: rgba(255, 192, 202, 0); transform-box: fill-box; transform-origin: 50% 50%; stroke-width: 2px;" d="M 411.971 195.897 C 411.971 192.735 414.993 190.527 416.668 188.852 C 424.359 181.161 430.117 155.189 412.754 155.189" transform="matrix(-1, 0, 0, -1, -0.000018, 0.000016)"/>
    <path style="stroke: rgb(0, 0, 0); fill: rgba(255, 192, 202, 0); transform-box: fill-box; transform-origin: 50% 50%; stroke-width: 2px;" d="M 436.938 200.084 C 436.938 215.403 422.893 220.485 414.236 211.827 C 413.844 211.436 413.844 202.824 414.236 202.433 C 419.063 197.605 421.934 190.821 426.761 185.993 C 427.087 185.667 427.087 178.49 426.761 178.164 C 423.045 174.448 412.067 164.495 418.15 152.33 C 419.065 150.5 427.122 136.251 430.676 139.804 C 432.155 141.284 429.893 146.859 429.893 148.416" transform="matrix(-1, 0, 0, -1, -0.000037, -0.000005)"/>
    <path style="stroke: rgb(0, 0, 0); fill: rgba(255, 192, 202, 0); stroke-width: 2px;" d="M 94.617 154.015 C 94.617 138.696 80.572 133.614 71.915 142.272 C 71.523 142.663 71.523 151.275 71.915 151.666 C 76.742 156.494 79.613 163.278 84.44 168.106 C 84.766 168.432 84.766 175.609 84.44 175.935 C 80.724 179.651 69.746 189.604 75.829 201.769 C 76.744 203.599 84.801 217.848 88.355 214.295 C 89.834 212.815 87.572 207.24 87.572 205.683"/>
    <path style="stroke: rgb(0, 0, 0); fill: rgba(255, 192, 202, 0); stroke-width: 2px;" d="M 84.44 154.015 C 84.44 157.177 87.462 159.385 89.137 161.06 C 96.828 168.751 102.586 194.723 85.223 194.723"/>

  </g>


  
  <g>
    <path style="stroke: rgb(0, 0, 0); fill: rgba(216, 216, 216, 0); stroke-width: 3px;" d="M 243.361 170.455 C 243.361 189.962 231.618 205.823 231.618 223.689 C 231.618 227.204 226.794 242.351 230.052 245.609 C 232.792 248.349 236.706 249.915 239.446 252.655 C 244.753 257.961 254.835 243.261 256.669 243.261"/>
  </g>


  
  <g>
    <title>mouth</title>
    <path style="stroke: rgb(0, 0, 0); fill: rgb(255, 255, 255); stroke-width: 5px;" d="M 203.435 294.147 C 207.408 290.173 207.67 284.431 211.264 280.838 C 217.087 275.015 221.907 298.377 229.269 291.015 C 233.716 286.569 234.148 276.05 240.229 273.009 C 246.982 269.633 251.821 283.818 254.321 286.318 C 255.578 287.576 261.008 285.111 261.367 284.752 C 265.682 280.437 270.245 275.091 274.675 270.661 C 278.41 266.926 286.037 282.023 287.201 283.186 C 287.723 283.708 297.604 285.31 298.944 283.969 C 299.302 283.611 301.63 278.044 302.075 278.489 C 305.023 281.437 306.611 302.137 302.858 305.889 C 301.136 307.612 286.811 309.414 284.852 307.455 C 284.037 306.64 279.216 293.52 276.241 296.495 C 273.501 299.235 277.415 308.63 274.675 311.369 C 267.558 318.486 251.15 312.895 244.926 306.672 C 242.447 304.193 242.708 298.974 240.229 296.495 C 239.937 296.202 233.476 296.202 233.184 296.495 C 229.503 300.176 228.482 309.812 226.138 314.501 C 225.69 315.396 219.079 316.053 218.309 315.284 C 214.656 311.631 210.22 308.76 206.566 305.107 C 202.638 301.178 211.736 288.667 203.435 288.667"/>
  </g>


  
  <g>
    <title>hair</title>
    <path style="stroke: rgb(0, 0, 0); fill: rgba(216, 216, 216, 0); stroke-width: 3px;" d="M 130.629 92.169 C 130.629 87.423 135.905 81.412 138.457 78.86 C 146.773 70.544 149.662 59.044 158.029 50.677 C 159.697 49.009 168.989 43.756 168.989 41.283"/>
    <path style="stroke: rgb(0, 0, 0); fill: rgba(216, 216, 216, 0); stroke-width: 3px;" d="M 141.197 96.475 C 141.197 91.729 146.473 85.718 149.025 83.166 C 157.341 74.85 160.23 63.35 168.597 54.983 C 170.265 53.315 179.557 48.062 179.557 45.589"/>
    <path style="stroke: rgb(0, 0, 0); fill: rgba(216, 216, 216, 0); stroke-width: 3px;" d="M 156.072 95.692 C 156.072 90.946 161.348 84.935 163.9 82.383 C 172.216 74.067 175.105 62.567 183.472 54.2 C 185.14 52.532 194.432 47.279 194.432 44.806"/>
    <path style="stroke: rgb(0, 0, 0); fill: rgba(216, 216, 216, 0); stroke-width: 3px;" d="M 171.729 97.257 C 171.729 92.511 177.005 86.5 179.557 83.948 C 187.873 75.632 190.762 64.132 199.129 55.765 C 200.797 54.097 210.089 48.844 210.089 46.371"/>
    <path style="stroke: rgb(0, 0, 0); fill: rgba(216, 216, 216, 0); stroke-width: 3px;" d="M 181.123 98.04 C 181.123 93.294 186.399 87.283 188.951 84.731 C 197.267 76.415 200.156 64.915 208.523 56.548 C 210.191 54.88 219.483 49.627 219.483 47.154"/>
    <path style="stroke: rgb(0, 0, 0); fill: rgba(216, 216, 216, 0); stroke-width: 3px;" d="M 196.781 97.258 C 196.781 92.512 202.057 86.501 204.609 83.949 C 212.925 75.633 215.814 64.133 224.181 55.766 C 225.849 54.098 235.141 48.845 235.141 46.372"/>
    <path style="stroke: rgb(0, 0, 0); fill: rgba(216, 216, 216, 0); stroke-width: 3px;" d="M 206.957 98.04 C 206.957 93.294 212.233 87.283 214.785 84.731 C 223.101 76.415 225.99 64.915 234.357 56.548 C 236.025 54.88 245.317 49.627 245.317 47.154"/>
    <path style="stroke: rgb(0, 0, 0); fill: rgba(216, 216, 216, 0); stroke-width: 3px;" d="M 220.266 98.04 C 220.266 93.294 225.542 87.283 228.094 84.731 C 236.41 76.415 239.299 64.915 247.666 56.548 C 249.334 54.88 258.626 49.627 258.626 47.154"/>
    <path style="stroke: rgb(0, 0, 0); fill: rgba(216, 216, 216, 0); stroke-width: 3px;" d="M 236.706 94.909 C 236.706 90.163 241.982 84.152 244.534 81.6 C 252.85 73.284 255.739 61.784 264.106 53.417 C 265.774 51.749 275.066 46.496 275.066 44.023"/>
    <path style="stroke: rgb(0, 0, 0); fill: rgba(216, 216, 216, 0); stroke-width: 3px;" d="M 245.318 95.692 C 245.318 90.946 250.594 84.935 253.146 82.383 C 261.462 74.067 264.351 62.567 272.718 54.2 C 274.386 52.532 283.678 47.279 283.678 44.806"/>
    <path style="stroke: rgb(0, 0, 0); fill: rgba(216, 216, 216, 0); stroke-width: 3px;" d="M 257.061 96.475 C 257.061 91.729 262.337 85.718 264.889 83.166 C 273.205 74.85 276.094 63.35 284.461 54.983 C 286.129 53.315 295.421 48.062 295.421 45.589"/>
    <path style="stroke: rgb(0, 0, 0); fill: rgba(216, 216, 216, 0); stroke-width: 3px;" d="M 266.455 94.909 C 266.455 90.163 271.731 84.152 274.283 81.6 C 282.599 73.284 285.488 61.784 293.855 53.417 C 295.523 51.749 304.815 46.496 304.815 44.023"/>
    <path style="stroke: rgb(0, 0, 0); fill: rgba(216, 216, 216, 0); stroke-width: 3px;" d="M 275.067 96.475 C 275.067 91.729 280.343 85.718 282.895 83.166 C 291.211 74.85 294.1 63.35 302.467 54.983 C 304.135 53.315 313.427 48.062 313.427 45.589"/>
    <path style="stroke: rgb(0, 0, 0); fill: rgba(216, 216, 216, 0); stroke-width: 3px;" d="M 282.113 99.606 C 282.113 94.86 287.389 88.849 289.941 86.297 C 298.257 77.981 301.146 66.481 309.513 58.114 C 311.181 56.446 320.473 51.193 320.473 48.72"/>
    <path style="stroke: rgb(0, 0, 0); fill: rgba(216, 216, 216, 0); stroke-width: 3px;" d="M 294.638 95.692 C 294.638 90.946 299.914 84.935 302.466 82.383 C 310.782 74.067 313.671 62.567 322.038 54.2 C 323.706 52.532 332.998 47.279 332.998 44.806"/>
    <path style="stroke: rgb(0, 0, 0); fill: rgba(216, 216, 216, 0); stroke-width: 3px;" d="M 309.513 93.343 C 309.513 88.597 314.789 82.586 317.341 80.034 C 325.657 71.718 328.546 60.218 336.913 51.851 C 338.581 50.183 347.873 44.93 347.873 42.457"/>
    <path style="stroke: rgb(0, 0, 0); fill: rgba(216, 216, 216, 0); stroke-width: 3px;" d="M 321.255 92.56 C 321.255 87.814 326.531 81.803 329.083 79.251 C 337.399 70.935 340.288 59.435 348.655 51.068 C 350.323 49.4 359.615 44.147 359.615 41.674"/>
    <path style="stroke: rgb(0, 0, 0); fill: rgba(216, 216, 216, 0); stroke-width: 3px;" d="M 331.433 92.56 C 331.433 87.814 336.709 81.803 339.261 79.251 C 347.577 70.935 350.466 59.435 358.833 51.068 C 360.501 49.4 369.793 44.147 369.793 41.674"/>
    <path style="stroke: rgb(0, 0, 0); fill: rgba(216, 216, 216, 0); stroke-width: 3px;" d="M 341.609 94.126 C 341.609 89.38 346.885 83.369 349.437 80.817 C 357.753 72.501 360.642 61.001 369.009 52.634 C 370.677 50.966 379.969 45.713 379.969 43.24"/>
    <path style="stroke: rgb(0, 0, 0); fill: rgba(216, 216, 216, 0); stroke-width: 3px;" d="M 352.57 92.561 C 352.57 87.815 357.846 81.804 360.398 79.252 C 368.714 70.936 371.603 59.436 379.97 51.069 C 381.638 49.401 390.93 44.148 390.93 41.675"/>
    <path style="stroke: rgb(0, 0, 0); fill: rgba(216, 216, 216, 0); stroke-width: 3px;" d="M 365.095 93.344 C 365.095 88.598 370.371 82.587 372.923 80.035 C 381.239 71.719 384.128 60.219 392.495 51.852 C 394.163 50.184 403.455 44.931 403.455 42.458"/>
  </g>
</svg>