<?xml version="1.0" encoding="utf-8"?><svg viewBox="0 0 500 500" xmlns="http://www.w3.org/2000/svg">
 
  <rect x="0" y="0" width="500" height="500" style="stroke: rgb(0, 0, 0); fill: rgb(255, 51, 51);"/>

 
  <g transform="matrix(1, 0, 0, 1, 1.7251859903335571, -21.05528450012207)" style="">
    <title>ugly</title>
    <path style="stroke-width: 5px; stroke: rgb(0, 0, 0); fill: rgb(255, 255, 255);" d="M 117.32 123.483 C 182.055 123.483 248.918 119.569 311.47 119.569 C 327.795 119.569 344.451 117.22 359.224 117.22 C 361.97 117.22 374.7 115.473 376.447 117.22 C 377.035 117.808 371.788 118.786 378.013 118.786"/>
    <path style="stroke: rgb(0, 0, 0); stroke-width: 5px; fill: rgb(255, 255, 255);" d="M 375.664 117.22 C 375.664 131.586 374.098 142.83 374.098 156.363 C 374.098 158.609 372.669 169.025 374.098 170.455 C 377.952 174.309 372.891 186.47 376.447 190.026 C 378.274 191.853 375.403 198.377 377.23 200.203 C 379.839 202.813 376.186 211.685 378.796 214.295 C 382.038 217.537 380.361 237.313 380.361 243.261 C 380.361 252.394 380.361 261.527 380.361 270.661 C 380.361 273.588 381.133 279.284 379.578 280.838 C 377.621 282.795 379.97 289.058 378.013 291.015 C 376.568 292.46 378.72 298.919 377.23 300.409 C 370.769 306.87 373.048 324.945 366.27 331.724 C 363.53 334.464 366.661 343.075 363.921 345.815 C 360.934 348.803 362.536 356.595 360.007 359.124 C 353.099 366.032 353.402 382.952 346.698 389.655 C 334.039 402.314 323.487 408.698 306.772 417.056 C 293.456 423.714 275.492 425.667 258.235 425.667 C 215.866 425.667 192.265 410.584 170.555 388.873 C 164.916 383.233 163.424 374.697 158.029 369.301 C 153.256 364.528 154.777 353.403 151.766 347.381 C 148.866 341.581 147.852 326.683 147.852 320.764 C 147.852 317.157 148.204 308.59 146.286 306.672 C 144.59 304.976 146.417 299.757 144.72 298.061 C 140.993 294.334 144.43 282.896 140.806 279.272 C 136.967 275.433 139.786 264.943 136.109 261.266 C 134.221 259.379 136.643 252.406 134.543 250.306 C 128.606 244.369 130.729 228.587 126.715 220.558 C 124.617 216.362 128.259 207.228 125.149 204.118 C 123.958 202.927 125.149 194.246 125.149 192.375 C 125.149 180.632 125.149 168.889 125.149 157.146 C 125.149 152.028 127.329 135.84 124.366 132.877 C 123.014 131.525 115.755 125.367 115.755 124.266"/>
  </g>

 
  <g style="">
    <title>brows</title>
    <path style="stroke: rgb(0, 0, 0); transform-box: fill-box; transform-origin: 50% 50%;" d="M 273.917 163.037 C 277.776 160.175 284.268 161.293 287.735 158.721 C 292.339 155.304 298.592 152.823 303.007 149.548 C 306.52 146.941 311.378 145.495 314.643 143.073 C 315.304 142.583 319.912 138.35 320.461 138.757 C 326.67 143.363 314.188 150.425 313.188 151.166 C 302.965 158.752 287.363 162.498 271.008 162.498" transform="matrix(-1, 0, 0, -1, -0.000041, -0.000006)"/>
    <path style="stroke: rgb(0, 0, 0);" d="M 169.55 137.575 C 173.409 140.437 179.901 139.319 183.368 141.891 C 187.972 145.308 194.225 147.789 198.64 151.064 C 202.153 153.671 207.011 155.117 210.276 157.539 C 210.937 158.029 215.545 162.262 216.094 161.855 C 222.303 157.249 209.821 150.187 208.821 149.446 C 198.598 141.86 182.996 138.114 166.641 138.114"/>
  </g>


  
  <g style="">
    <title>eyes</title>
    <path style="stroke: rgb(0, 0, 0); stroke-width: 3px; fill: rgb(255,255,255);" d="M 174.469 151.666 C 158.849 156.873 148.795 199.581 161.16 211.946 C 164.181 214.967 177.225 220.354 184.646 216.643 C 196.121 210.906 206.427 211.302 214.395 203.335 C 216.699 201.03 218.299 195.525 219.875 192.375 C 236.199 159.727 195.382 150.1 167.423 150.1"/>
    <path style="transform-box: fill-box; transform-origin: 50% 50%; stroke: rgb(0, 0, 0); stroke-width: 3px; fill: rgb(255,255,255);" d="M 290.842 213.749 C 275.222 208.542 265.168 165.834 277.533 153.469 C 280.554 150.448 293.598 145.061 301.019 148.772 C 312.494 154.509 322.8 154.113 330.768 162.08 C 333.072 164.385 334.672 169.89 336.248 173.04 C 352.572 205.688 311.755 215.315 283.796 215.315" transform="matrix(-1, 0, 0, -1, 0.000027, -0.000016)"/>
    <ellipse style="stroke: rgb(0, 0, 0);" cx="189.735" cy="182.98" rx="8.22" ry="7.046"/>
    <ellipse style="stroke: rgb(0, 0, 0);" cx="301.292" cy="179.067" rx="8.22" ry="7.046"/>
  </g>



  
  <g style="">
    <path style="stroke: rgb(0, 0, 0); fill: rgb(255, 255, 255); stroke-width: 2px;" d="M 104.795 204.118 C 104.795 174.273 117.929 139.445 92.269 126.615 C 85.719 123.34 72.186 117.732 64.086 125.832 C 61.998 127.919 60.694 130.79 58.606 132.877 C 57.301 134.182 59.128 138.618 57.823 139.923 C 57.008 140.739 57.008 158.679 57.823 159.495 C 61.998 163.67 62.259 171.759 66.434 175.935 C 66.858 176.359 68.019 184.527 67.217 185.329 C 59.806 192.74 61.049 216.738 68 223.689 C 70.043 225.732 74.873 224.299 76.612 226.038 C 78.245 227.671 84.52 226.821 87.572 226.821 C 99.987 226.821 104.795 212.367 104.795 200.203"/>
    <path style="stroke: rgb(0, 0, 0); fill: rgb(255, 255, 255); stroke-width: 2px; transform-box: fill-box; transform-origin: 50% 50%;" d="M 443.964 144.6 C 443.964 174.445 457.098 209.273 431.438 222.103 C 424.888 225.378 411.355 230.986 403.255 222.886 C 401.167 220.799 399.863 217.928 397.775 215.841 C 396.47 214.536 398.297 210.1 396.992 208.795 C 396.177 207.979 396.177 190.039 396.992 189.223 C 401.167 185.048 401.428 176.959 405.603 172.783 C 406.027 172.359 407.188 164.191 406.386 163.389 C 398.975 155.978 400.218 131.98 407.169 125.029 C 409.212 122.986 414.042 124.419 415.781 122.68 C 417.414 121.047 423.689 121.897 426.741 121.897 C 439.156 121.897 443.964 136.351 443.964 148.515" transform="matrix(-1, 0, 0, -1, 0.000035, 0.000008)"/>
    <path style="stroke: rgb(0, 0, 0); fill: rgba(255, 192, 202, 0); transform-box: fill-box; transform-origin: 50% 50%; stroke-width: 2px;" d="M 411.971 195.897 C 411.971 192.735 414.993 190.527 416.668 188.852 C 424.359 181.161 430.117 155.189 412.754 155.189" transform="matrix(-1, 0, 0, -1, -0.000018, 0.000016)"/>
    <path style="stroke: rgb(0, 0, 0); fill: rgba(255, 192, 202, 0); transform-box: fill-box; transform-origin: 50% 50%; stroke-width: 2px;" d="M 436.938 200.084 C 436.938 215.403 422.893 220.485 414.236 211.827 C 413.844 211.436 413.844 202.824 414.236 202.433 C 419.063 197.605 421.934 190.821 426.761 185.993 C 427.087 185.667 427.087 178.49 426.761 178.164 C 423.045 174.448 412.067 164.495 418.15 152.33 C 419.065 150.5 427.122 136.251 430.676 139.804 C 432.155 141.284 429.893 146.859 429.893 148.416" transform="matrix(-1, 0, 0, -1, -0.000037, -0.000005)"/>
    <path style="stroke: rgb(0, 0, 0); fill: rgba(255, 192, 202, 0); stroke-width: 2px;" d="M 94.617 154.015 C 94.617 138.696 80.572 133.614 71.915 142.272 C 71.523 142.663 71.523 151.275 71.915 151.666 C 76.742 156.494 79.613 163.278 84.44 168.106 C 84.766 168.432 84.766 175.609 84.44 175.935 C 80.724 179.651 69.746 189.604 75.829 201.769 C 76.744 203.599 84.801 217.848 88.355 214.295 C 89.834 212.815 87.572 207.24 87.572 205.683"/>
    <path style="stroke: rgb(0, 0, 0); fill: rgba(255, 192, 202, 0); stroke-width: 2px;" d="M 84.44 154.015 C 84.44 157.177 87.462 159.385 89.137 161.06 C 96.828 168.751 102.586 194.723 85.223 194.723"/>

  </g>


  
  <g>
    <path style="stroke: rgb(0, 0, 0); fill: rgba(216, 216, 216, 0); stroke-width: 3px;" d="M 233.643 166.541 C 233.643 186.206 229.144 211.987 221.58 228.563 C 220.616 230.677 214.174 248.917 216.013 250.932 C 217.425 252.478 227.713 250.932 229.931 250.932 C 244.764 250.932 256.629 247.88 270.761 247.88"/>
  </g>


  
  <g>
    <title>mouth</title>
    <path style="fill: rgb(255, 255, 255); stroke: rgb(0, 0, 0); stroke-width: 5px;" d="M 185.429 280.055 C 193.7 284.191 211.303 280.838 220.658 280.838 C 250.501 280.838 277.619 277.706 308.338 277.706"/>
  </g>



  
  <g>
    <title>hair</title>
    <path style="stroke: rgb(0, 0, 0); fill: rgba(216, 216, 216, 0); stroke-width: 3px;" d="M 114.189 85.906 C 114.189 76.234 114.489 58.989 119.669 53.809 C 120.998 52.48 133.299 50.998 135.326 53.026 C 140.23 57.93 158.079 73.33 146.286 85.123 C 144.623 86.787 141.222 80.842 140.806 80.426 C 137.425 77.045 122.855 67.79 128.28 56.94 C 130.686 52.129 135.221 50.73 140.023 48.329 C 160.181 38.25 167.66 58.742 174.469 65.552 C 176.276 67.359 177.601 75.098 177.601 78.86 C 177.601 79.598 177.745 86.833 175.252 84.34 C 171.307 80.395 173.799 66.221 176.818 63.203 C 180.732 59.289 181.515 52.243 185.429 48.329 C 195.583 38.174 218.09 53.37 221.441 60.071 C 222.64 62.469 222.767 66.095 224.572 67.9 C 229.616 72.944 219.245 80.111 215.178 78.077 C 209.132 75.054 209.895 68.098 205.784 63.986 C 205.458 63.66 205.458 56.483 205.784 56.157 C 208.555 53.385 212.338 51.168 215.178 48.329 C 216.694 46.812 233.208 43.656 235.532 45.98 C 240.668 51.115 248.099 51.502 253.538 56.94 C 255.365 58.767 254.06 63.725 255.887 65.552 C 257.191 66.856 257.191 73.641 255.887 74.946 C 254.712 76.12 255.495 79.252 254.321 80.426 C 249.16 85.586 244.915 77.283 243.361 75.729 C 242.17 74.538 243.361 65.857 243.361 63.986 C 243.361 54.473 259.283 43.764 271.544 49.894 C 281.347 54.796 287.757 72.825 277.807 82.774 C 273.057 87.524 267.784 68.528 271.544 64.769 C 279.223 57.089 285.014 58.425 295.812 53.026 C 297.584 52.14 308.555 49.329 310.687 51.46 C 312.841 53.615 324.174 70.853 317.732 77.294 C 315.928 79.099 313.532 80.712 311.47 82.774 C 307.913 86.331 303.672 74.225 302.858 72.597 C 298.824 64.528 304.86 58.07 308.338 54.591 C 313.515 49.414 328.923 50.677 338.87 50.677 C 340.491 50.677 348.015 49.645 349.047 50.677 C 351.004 52.634 352.57 54.983 354.527 56.94 C 355.277 57.69 361.1 68.372 357.658 71.814 C 356.084 73.389 345.809 78.024 341.218 75.729 C 337.311 73.775 337.84 68.436 335.738 66.334 C 335.282 65.878 332.063 59.049 334.173 56.94 C 337.735 53.378 344.238 50.789 348.264 46.763 C 349.455 45.572 358.135 46.763 360.007 46.763 C 378.011 46.763 378.703 56.847 387.407 65.552 C 392.317 70.461 382.072 86.051 378.796 82.774 C 367.978 71.957 378.53 67.382 386.624 59.289 C 388.712 57.201 389.935 53.026 392.887 53.026"/>
    <path style="stroke: rgb(0, 0, 0); fill: rgba(216, 216, 216, 0); stroke-width: 3px;" d="M 126.715 80.426 C 126.715 89.673 131.981 92.169 140.806 92.169 C 141.927 92.169 147.138 92.882 147.852 92.169 C 152.232 87.788 157.04 83.971 160.378 77.294 C 164.817 68.416 156.931 58.191 154.115 55.374 C 153.201 54.461 150.331 55.505 149.418 54.591 C 149.059 54.233 142.796 52.602 141.589 53.809 C 137.097 58.3 136.016 68.636 142.372 71.814 C 155.177 78.217 186.701 76.806 195.606 67.9 C 197.198 66.308 208.372 51.7 202.652 45.98 C 198.629 41.957 190.466 34.68 183.081 42.066 C 176.981 48.166 185.761 60.404 189.343 63.986 C 194.927 69.569 212.731 87.129 227.704 79.643 C 231.918 77.536 236.068 75.193 238.664 72.597 C 240.247 71.013 239.563 66.218 241.012 64.769 C 241.403 64.378 243.034 57.397 241.795 56.157 C 230.805 45.167 221.618 53.632 214.395 60.854 C 211.655 63.594 214.786 72.206 212.046 74.946 C 205.118 81.874 191.985 78.37 186.995 73.38 C 184.231 70.617 188.887 65.225 189.343 64.769 C 195.087 59.025 206.452 59.289 217.526 59.289 C 237.303 59.289 265.847 90.037 286.418 69.466 C 287.367 68.517 301.294 54.593 297.378 50.677 C 293.694 46.993 275.031 45.269 272.327 50.677 C 257.428 80.475 293.073 97.844 318.515 85.123 C 327.312 80.725 327.648 72.858 333.39 67.117 C 333.911 66.595 333.911 55.113 333.39 54.591 C 328.334 49.536 316.569 43.23 309.121 50.677 C 298.589 61.209 313.503 73.222 320.081 76.512 C 326.877 79.91 337.518 78.86 346.698 78.86 C 348.07 78.86 354.437 79.733 355.31 78.86 C 359.094 75.076 363.269 71.684 367.053 67.9 C 374.27 60.683 362.94 44.414 357.658 44.414 C 357.044 44.414 350.502 42.176 349.047 43.631 C 346.559 46.119 345.141 51.452 342.784 53.809 C 342.164 54.428 339.075 64.974 341.218 67.117 C 347.786 73.685 361.506 76.512 375.664 76.512 C 378.049 76.512 384.819 79.1 387.407 76.512 C 391.398 72.52 394.347 65.762 396.801 60.854 C 398.215 58.027 405.246 41.899 403.847 40.5 C 400.869 37.522 379.922 36.242 376.447 39.717 C 373.795 42.369 373.655 46.423 370.967 49.111 C 370.282 49.796 365.61 60.194 368.618 63.203 C 376.497 71.082 400.006 67.117 413.241 67.117"/>
  </g>
</svg>