<?xml version="1.0" encoding="utf-8"?><svg viewBox="0 0 500 500" xmlns="http://www.w3.org/2000/svg">
 
  <rect x="0" y="0" width="500" height="500" style="stroke: rgb(0, 0, 0); fill: rgb(255, 255, 0);"/>

 
  <g style="" transform="matrix(1, 0, 0, 1, 2.794066905975342, -25.758405685424805)">
    <title>handsome</title>
    <path style="stroke: rgb(0, 0, 0); stroke-width: 5px; fill: rgb(255, 255, 255);" d="M 117.32 124.266 C 117.32 138.458 118.103 151.686 118.103 165.758 C 118.103 168.004 119.533 178.42 118.103 179.849 C 115.581 182.371 119.248 192.013 116.538 194.723 C 114.841 196.42 117.451 202.421 115.755 204.118 C 114.319 205.553 116.407 210.511 114.972 211.946 C 110.785 216.134 113.406 235.748 113.406 243.261 C 113.406 253.96 113.406 264.659 113.406 275.358 C 113.406 277.105 112.295 285.206 113.406 286.318 C 115.102 288.014 114.058 292.45 115.755 294.147 C 122.743 301.135 123.742 313.877 130.629 320.764 C 147.371 337.505 159.179 365.754 176.818 383.393 C 189.715 396.29 193.977 418.558 205.784 430.364 C 207.48 432.06 213.482 429.451 215.178 431.147 C 219.529 435.498 229.235 435.061 237.881 435.061 C 245.248 435.061 250.58 434.278 258.235 434.278 C 259.482 434.278 265.27 435.072 266.064 434.278 C 269.915 430.427 277.141 431.03 280.938 427.233 C 287.944 420.226 299.823 416.959 306.772 410.01 C 318.51 398.273 321.846 380.845 332.607 370.084 C 337.724 364.967 338.07 355.227 342.784 350.512 C 350.351 342.945 346.365 323.445 353.744 316.067 C 355.612 314.199 354.225 308.54 356.093 306.672 C 360.937 301.828 359.551 288.34 363.921 283.969 C 368.379 279.512 367.759 268.389 372.533 263.615 C 373.941 262.206 372.005 256.315 373.315 255.004 C 376.846 251.473 373.222 240.222 376.447 236.998 C 379.636 233.809 376.57 227.358 378.796 222.906 C 383.716 213.066 381.144 195.34 381.144 183.763 C 381.144 171.499 381.144 159.234 381.144 146.969 C 381.144 143.543 382.233 135.532 380.361 133.66 C 377.653 130.952 382.278 117.22 377.23 117.22"/>
    <path style="stroke-width: 5px; stroke: rgb(0, 0, 0); fill: rgb(255, 255, 255);" d="M 117.32 123.483 C 182.055 123.483 248.918 119.569 311.47 119.569 C 327.795 119.569 344.451 117.22 359.224 117.22 C 361.97 117.22 374.7 115.473 376.447 117.22 C 377.035 117.808 371.788 118.786 378.013 118.786"/>
  </g>

 
  <g>
    <title>brows</title>
    <path style="stroke: rgb(0, 0, 0); fill: rgb(12, 12, 12);" d="M 154.115 137.605 C 156.09 136.377 163.02 137.118 165.858 137.118 C 174.023 137.118 184.669 136.632 194.041 136.632 C 195.537 136.632 202.482 136.039 203.435 136.632 C 204.05 137.014 216.302 138.366 212.829 140.525 C 211.376 141.428 204.371 142.958 201.086 142.958 C 199.715 142.958 193.348 142.415 192.475 142.958 C 190.909 143.931 186.212 142.958 184.646 143.931 C 181.524 145.872 156.387 145.83 153.332 143.931 C 151.505 142.796 145.764 144.094 143.938 142.958 C 140.618 140.894 148.817 139.925 149.418 139.551 C 151.472 138.275 163.065 137.605 163.509 137.605"/>
    <path style="stroke: rgb(0, 0, 0); fill: rgb(12, 12, 12); transform-box: fill-box; transform-origin: 50% 50%;" d="M 273.196 145.536 C 275.171 146.764 282.101 146.023 284.939 146.023 C 293.104 146.023 303.75 146.509 313.122 146.509 C 314.618 146.509 321.563 147.102 322.516 146.509 C 323.131 146.127 335.383 144.775 331.91 142.616 C 330.457 141.713 323.452 140.183 320.167 140.183 C 318.796 140.183 312.429 140.726 311.556 140.183 C 309.99 139.21 305.293 140.183 303.727 139.21 C 300.605 137.269 275.468 137.311 272.413 139.21 C 270.586 140.345 264.845 139.047 263.019 140.183 C 259.699 142.247 267.898 143.216 268.499 143.59 C 270.553 144.866 282.146 145.536 282.59 145.536" transform="matrix(-1, 0, 0, -1, 0.00002, -0.000002)"/>
  </g>


  
  <g style="">
    <title>eyes</title>
    <path style="stroke: rgb(0, 0, 0); stroke-width: 3px; fill: rgb(255,255,255);" d="M 174.469 151.666 C 158.849 156.873 148.795 199.581 161.16 211.946 C 164.181 214.967 177.225 220.354 184.646 216.643 C 196.121 210.906 206.427 211.302 214.395 203.335 C 216.699 201.03 218.299 195.525 219.875 192.375 C 236.199 159.727 195.382 150.1 167.423 150.1"/>
    <path style="transform-box: fill-box; transform-origin: 50% 50%; stroke: rgb(0, 0, 0); stroke-width: 3px; fill: rgb(255,255,255);" d="M 290.842 213.749 C 275.222 208.542 265.168 165.834 277.533 153.469 C 280.554 150.448 293.598 145.061 301.019 148.772 C 312.494 154.509 322.8 154.113 330.768 162.08 C 333.072 164.385 334.672 169.89 336.248 173.04 C 352.572 205.688 311.755 215.315 283.796 215.315" transform="matrix(-1, 0, 0, -1, 0.000027, -0.000016)"/>
    <ellipse style="stroke: rgb(0, 0, 0);" cx="189.735" cy="182.98" rx="8.22" ry="7.046"/>
    <ellipse style="stroke: rgb(0, 0, 0);" cx="301.292" cy="179.067" rx="8.22" ry="7.046"/>
  </g>



  


  <g style="">
    <path style="stroke: rgb(0, 0, 0); fill: rgba(216, 216, 216, 0); stroke-width: 2px; transform-box: fill-box; transform-origin: 50% 50%;" d="M 445.781 167.262 C 444.907 169.01 437.945 177.431 441.084 180.57 C 444.119 183.605 446.887 204.516 442.65 208.753 C 433.561 217.842 420.946 224.977 411.336 234.588 C 410.238 235.685 399.593 241.633 399.593 241.633 C 399.593 241.633 399.366 236.38 399.593 236.153 C 404.836 230.91 397.119 213.575 402.724 207.97 C 405.04 205.654 402.848 197.669 405.073 195.445 C 409.122 191.395 408.204 180.669 408.204 172.742 C 408.204 154.463 400.518 130.325 412.119 118.724 C 413.325 117.517 424.824 102.464 430.907 108.547 C 435.897 113.537 435.249 117.23 438.736 124.204 C 440.235 127.202 438.028 134.457 440.301 136.73 C 445.662 142.09 445.781 161.226 445.781 170.393" transform="matrix(-1, 0, 0, -1, 0.000066, -0.000036)"/>
    <path style="stroke: rgb(0, 0, 0); fill: rgba(216, 216, 216, 0); stroke-width: 2px;" d="M 105.577 172.02 C 104.703 170.272 97.741 161.851 100.88 158.712 C 103.915 155.677 106.683 134.766 102.446 130.529 C 93.357 121.44 80.742 114.305 71.132 104.694 C 70.034 103.597 59.389 97.649 59.389 97.649 C 59.389 97.649 59.162 102.902 59.389 103.129 C 64.632 108.372 56.915 125.707 62.52 131.312 C 64.836 133.628 62.644 141.613 64.869 143.837 C 68.918 147.887 68 158.613 68 166.54 C 68 184.819 60.314 208.957 71.915 220.558 C 73.121 221.765 84.62 236.818 90.703 230.735 C 95.693 225.745 95.045 222.052 98.532 215.078 C 100.031 212.08 97.824 204.825 100.097 202.552 C 105.458 197.192 105.577 178.056 105.577 168.889"/>
    <path style="stroke: rgb(0, 0, 0); transform-box: fill-box; transform-origin: 50% 50%; fill: rgba(216, 216, 216, 0); stroke-width: 2px;" d="M 411.971 195.897 C 411.971 192.735 414.993 190.527 416.668 188.852 C 424.359 181.161 430.117 155.189 412.754 155.189" transform="matrix(-1, 0, 0, -1, -0.000018, 0.000016)"/>
    <path style="stroke: rgb(0, 0, 0); transform-box: fill-box; transform-origin: 50% 50%; fill: rgba(216, 216, 216, 0); stroke-width: 2px;" d="M 436.938 200.084 C 436.938 215.403 422.893 220.485 414.236 211.827 C 413.844 211.436 413.844 202.824 414.236 202.433 C 419.063 197.605 421.934 190.821 426.761 185.993 C 427.087 185.667 427.087 178.49 426.761 178.164 C 423.045 174.448 412.067 164.495 418.15 152.33 C 419.065 150.5 427.122 136.251 430.676 139.804 C 432.155 141.284 429.893 146.859 429.893 148.416" transform="matrix(-1, 0, 0, -1, -0.000037, -0.000005)"/>
    <path style="stroke: rgb(0, 0, 0); fill: rgba(216, 216, 216, 0); stroke-width: 2px;" d="M 94.617 154.015 C 94.617 138.696 80.572 133.614 71.915 142.272 C 71.523 142.663 71.523 151.275 71.915 151.666 C 76.742 156.494 79.613 163.278 84.44 168.106 C 84.766 168.432 84.766 175.609 84.44 175.935 C 80.724 179.651 69.746 189.604 75.829 201.769 C 76.744 203.599 84.801 217.848 88.355 214.295 C 89.834 212.815 87.572 207.24 87.572 205.683"/>
    <path style="stroke: rgb(0, 0, 0); fill: rgba(216, 216, 216, 0); stroke-width: 2px;" d="M 84.44 154.015 C 84.44 157.177 87.462 159.385 89.137 161.06 C 96.828 168.751 102.586 194.723 85.223 194.723"/>
  </g>


  
  <g>
    <path style="stroke: rgb(0, 0, 0); fill: rgba(216, 216, 216, 0); stroke-width: 3px;" d="M 233.643 166.541 C 233.643 186.206 229.144 211.987 221.58 228.563 C 220.616 230.677 214.174 248.917 216.013 250.932 C 217.425 252.478 227.713 250.932 229.931 250.932 C 244.764 250.932 256.629 247.88 270.761 247.88"/>
  </g>


  
  <g>
    <title>mouth</title>
    <path style="stroke: rgb(0, 0, 0); fill: rgba(0, 0, 0, 0); stroke-width: 5px;" d="M 206.566 309.804 C 206.566 292.012 217.151 296.087 226.138 287.101 C 229.921 283.318 241.549 284.999 245.709 280.838 C 248.173 278.374 260.283 276.773 265.281 279.272 C 268.917 281.09 278.933 278.05 281.721 280.838 C 291.062 290.179 303.641 290.58 303.641 308.238"/>
  </g>



  
  <g>
    <title>hair</title>
    <path style="stroke: rgb(0, 0, 0); fill: rgba(216, 216, 216, 0); stroke-width: 3px;" d="M 130.629 92.169 C 130.629 87.423 135.905 81.412 138.457 78.86 C 146.773 70.544 149.662 59.044 158.029 50.677 C 159.697 49.009 168.989 43.756 168.989 41.283"/>
    <path style="stroke: rgb(0, 0, 0); fill: rgba(216, 216, 216, 0); stroke-width: 3px;" d="M 141.197 96.475 C 141.197 91.729 146.473 85.718 149.025 83.166 C 157.341 74.85 160.23 63.35 168.597 54.983 C 170.265 53.315 179.557 48.062 179.557 45.589"/>
    <path style="stroke: rgb(0, 0, 0); fill: rgba(216, 216, 216, 0); stroke-width: 3px;" d="M 156.072 95.692 C 156.072 90.946 161.348 84.935 163.9 82.383 C 172.216 74.067 175.105 62.567 183.472 54.2 C 185.14 52.532 194.432 47.279 194.432 44.806"/>
    <path style="stroke: rgb(0, 0, 0); fill: rgba(216, 216, 216, 0); stroke-width: 3px;" d="M 171.729 97.257 C 171.729 92.511 177.005 86.5 179.557 83.948 C 187.873 75.632 190.762 64.132 199.129 55.765 C 200.797 54.097 210.089 48.844 210.089 46.371"/>
    <path style="stroke: rgb(0, 0, 0); fill: rgba(216, 216, 216, 0); stroke-width: 3px;" d="M 181.123 98.04 C 181.123 93.294 186.399 87.283 188.951 84.731 C 197.267 76.415 200.156 64.915 208.523 56.548 C 210.191 54.88 219.483 49.627 219.483 47.154"/>
    <path style="stroke: rgb(0, 0, 0); fill: rgba(216, 216, 216, 0); stroke-width: 3px;" d="M 196.781 97.258 C 196.781 92.512 202.057 86.501 204.609 83.949 C 212.925 75.633 215.814 64.133 224.181 55.766 C 225.849 54.098 235.141 48.845 235.141 46.372"/>
    <path style="stroke: rgb(0, 0, 0); fill: rgba(216, 216, 216, 0); stroke-width: 3px;" d="M 206.957 98.04 C 206.957 93.294 212.233 87.283 214.785 84.731 C 223.101 76.415 225.99 64.915 234.357 56.548 C 236.025 54.88 245.317 49.627 245.317 47.154"/>
    <path style="stroke: rgb(0, 0, 0); fill: rgba(216, 216, 216, 0); stroke-width: 3px;" d="M 220.266 98.04 C 220.266 93.294 225.542 87.283 228.094 84.731 C 236.41 76.415 239.299 64.915 247.666 56.548 C 249.334 54.88 258.626 49.627 258.626 47.154"/>
    <path style="stroke: rgb(0, 0, 0); fill: rgba(216, 216, 216, 0); stroke-width: 3px;" d="M 236.706 94.909 C 236.706 90.163 241.982 84.152 244.534 81.6 C 252.85 73.284 255.739 61.784 264.106 53.417 C 265.774 51.749 275.066 46.496 275.066 44.023"/>
    <path style="stroke: rgb(0, 0, 0); fill: rgba(216, 216, 216, 0); stroke-width: 3px;" d="M 245.318 95.692 C 245.318 90.946 250.594 84.935 253.146 82.383 C 261.462 74.067 264.351 62.567 272.718 54.2 C 274.386 52.532 283.678 47.279 283.678 44.806"/>
    <path style="stroke: rgb(0, 0, 0); fill: rgba(216, 216, 216, 0); stroke-width: 3px;" d="M 257.061 96.475 C 257.061 91.729 262.337 85.718 264.889 83.166 C 273.205 74.85 276.094 63.35 284.461 54.983 C 286.129 53.315 295.421 48.062 295.421 45.589"/>
    <path style="stroke: rgb(0, 0, 0); fill: rgba(216, 216, 216, 0); stroke-width: 3px;" d="M 266.455 94.909 C 266.455 90.163 271.731 84.152 274.283 81.6 C 282.599 73.284 285.488 61.784 293.855 53.417 C 295.523 51.749 304.815 46.496 304.815 44.023"/>
    <path style="stroke: rgb(0, 0, 0); fill: rgba(216, 216, 216, 0); stroke-width: 3px;" d="M 275.067 96.475 C 275.067 91.729 280.343 85.718 282.895 83.166 C 291.211 74.85 294.1 63.35 302.467 54.983 C 304.135 53.315 313.427 48.062 313.427 45.589"/>
    <path style="stroke: rgb(0, 0, 0); fill: rgba(216, 216, 216, 0); stroke-width: 3px;" d="M 282.113 99.606 C 282.113 94.86 287.389 88.849 289.941 86.297 C 298.257 77.981 301.146 66.481 309.513 58.114 C 311.181 56.446 320.473 51.193 320.473 48.72"/>
    <path style="stroke: rgb(0, 0, 0); fill: rgba(216, 216, 216, 0); stroke-width: 3px;" d="M 294.638 95.692 C 294.638 90.946 299.914 84.935 302.466 82.383 C 310.782 74.067 313.671 62.567 322.038 54.2 C 323.706 52.532 332.998 47.279 332.998 44.806"/>
    <path style="stroke: rgb(0, 0, 0); fill: rgba(216, 216, 216, 0); stroke-width: 3px;" d="M 309.513 93.343 C 309.513 88.597 314.789 82.586 317.341 80.034 C 325.657 71.718 328.546 60.218 336.913 51.851 C 338.581 50.183 347.873 44.93 347.873 42.457"/>
    <path style="stroke: rgb(0, 0, 0); fill: rgba(216, 216, 216, 0); stroke-width: 3px;" d="M 321.255 92.56 C 321.255 87.814 326.531 81.803 329.083 79.251 C 337.399 70.935 340.288 59.435 348.655 51.068 C 350.323 49.4 359.615 44.147 359.615 41.674"/>
    <path style="stroke: rgb(0, 0, 0); fill: rgba(216, 216, 216, 0); stroke-width: 3px;" d="M 331.433 92.56 C 331.433 87.814 336.709 81.803 339.261 79.251 C 347.577 70.935 350.466 59.435 358.833 51.068 C 360.501 49.4 369.793 44.147 369.793 41.674"/>
    <path style="stroke: rgb(0, 0, 0); fill: rgba(216, 216, 216, 0); stroke-width: 3px;" d="M 341.609 94.126 C 341.609 89.38 346.885 83.369 349.437 80.817 C 357.753 72.501 360.642 61.001 369.009 52.634 C 370.677 50.966 379.969 45.713 379.969 43.24"/>
    <path style="stroke: rgb(0, 0, 0); fill: rgba(216, 216, 216, 0); stroke-width: 3px;" d="M 352.57 92.561 C 352.57 87.815 357.846 81.804 360.398 79.252 C 368.714 70.936 371.603 59.436 379.97 51.069 C 381.638 49.401 390.93 44.148 390.93 41.675"/>
    <path style="stroke: rgb(0, 0, 0); fill: rgba(216, 216, 216, 0); stroke-width: 3px;" d="M 365.095 93.344 C 365.095 88.598 370.371 82.587 372.923 80.035 C 381.239 71.719 384.128 60.219 392.495 51.852 C 394.163 50.184 403.455 44.931 403.455 42.458"/>
  </g>
</svg>