<?xml version="1.0" encoding="utf-8"?>
<svg viewBox="0 0 500 500" xmlns="http://www.w3.org/2000/svg">
  <g style="">
    <title>brows</title>
    <path style="stroke: rgb(0, 0, 0); transform-box: fill-box; transform-origin: 50% 50%;" d="M 273.917 163.037 C 277.776 160.175 284.268 161.293 287.735 158.721 C 292.339 155.304 298.592 152.823 303.007 149.548 C 306.52 146.941 311.378 145.495 314.643 143.073 C 315.304 142.583 319.912 138.35 320.461 138.757 C 326.67 143.363 314.188 150.425 313.188 151.166 C 302.965 158.752 287.363 162.498 271.008 162.498" transform="matrix(-1, 0, 0, -1, -0.000041, -0.000006)"/>
    <path style="stroke: rgb(0, 0, 0);" d="M 169.55 137.575 C 173.409 140.437 179.901 139.319 183.368 141.891 C 187.972 145.308 194.225 147.789 198.64 151.064 C 202.153 153.671 207.011 155.117 210.276 157.539 C 210.937 158.029 215.545 162.262 216.094 161.855 C 222.303 157.249 209.821 150.187 208.821 149.446 C 198.598 141.86 182.996 138.114 166.641 138.114"/>
  </g>
</svg>