<?xml version="1.0" encoding="utf-8"?>
<svg viewBox="0 0 500 500" xmlns="http://www.w3.org/2000/svg">
  <g>
    <title>brows</title>
    <path style="stroke: rgb(0, 0, 0); fill: rgb(12, 12, 12);" d="M 154.115 137.605 C 156.09 136.377 163.02 137.118 165.858 137.118 C 174.023 137.118 184.669 136.632 194.041 136.632 C 195.537 136.632 202.482 136.039 203.435 136.632 C 204.05 137.014 216.302 138.366 212.829 140.525 C 211.376 141.428 204.371 142.958 201.086 142.958 C 199.715 142.958 193.348 142.415 192.475 142.958 C 190.909 143.931 186.212 142.958 184.646 143.931 C 181.524 145.872 156.387 145.83 153.332 143.931 C 151.505 142.796 145.764 144.094 143.938 142.958 C 140.618 140.894 148.817 139.925 149.418 139.551 C 151.472 138.275 163.065 137.605 163.509 137.605"/>
    <path style="stroke: rgb(0, 0, 0); fill: rgb(12, 12, 12); transform-box: fill-box; transform-origin: 50% 50%;" d="M 273.196 145.536 C 275.171 146.764 282.101 146.023 284.939 146.023 C 293.104 146.023 303.75 146.509 313.122 146.509 C 314.618 146.509 321.563 147.102 322.516 146.509 C 323.131 146.127 335.383 144.775 331.91 142.616 C 330.457 141.713 323.452 140.183 320.167 140.183 C 318.796 140.183 312.429 140.726 311.556 140.183 C 309.99 139.21 305.293 140.183 303.727 139.21 C 300.605 137.269 275.468 137.311 272.413 139.21 C 270.586 140.345 264.845 139.047 263.019 140.183 C 259.699 142.247 267.898 143.216 268.499 143.59 C 270.553 144.866 282.146 145.536 282.59 145.536" transform="matrix(-1, 0, 0, -1, 0.00002, -0.000002)"/>
  </g>
</svg>