<?xml version="1.0" encoding="utf-8"?>
<svg viewBox="0 0 500 500" xmlns="http://www.w3.org/2000/svg">
  <g style="" transform="matrix(1, 0, 0, 1, 2.794066905975342, -25.758405685424805)">
    <title>handsome</title>
    <path style="stroke: rgb(0, 0, 0); stroke-width: 5px; fill: rgb(255, 255, 255);" d="M 117.32 124.266 C 117.32 138.458 118.103 151.686 118.103 165.758 C 118.103 168.004 119.533 178.42 118.103 179.849 C 115.581 182.371 119.248 192.013 116.538 194.723 C 114.841 196.42 117.451 202.421 115.755 204.118 C 114.319 205.553 116.407 210.511 114.972 211.946 C 110.785 216.134 113.406 235.748 113.406 243.261 C 113.406 253.96 113.406 264.659 113.406 275.358 C 113.406 277.105 112.295 285.206 113.406 286.318 C 115.102 288.014 114.058 292.45 115.755 294.147 C 122.743 301.135 123.742 313.877 130.629 320.764 C 147.371 337.505 159.179 365.754 176.818 383.393 C 189.715 396.29 193.977 418.558 205.784 430.364 C 207.48 432.06 213.482 429.451 215.178 431.147 C 219.529 435.498 229.235 435.061 237.881 435.061 C 245.248 435.061 250.58 434.278 258.235 434.278 C 259.482 434.278 265.27 435.072 266.064 434.278 C 269.915 430.427 277.141 431.03 280.938 427.233 C 287.944 420.226 299.823 416.959 306.772 410.01 C 318.51 398.273 321.846 380.845 332.607 370.084 C 337.724 364.967 338.07 355.227 342.784 350.512 C 350.351 342.945 346.365 323.445 353.744 316.067 C 355.612 314.199 354.225 308.54 356.093 306.672 C 360.937 301.828 359.551 288.34 363.921 283.969 C 368.379 279.512 367.759 268.389 372.533 263.615 C 373.941 262.206 372.005 256.315 373.315 255.004 C 376.846 251.473 373.222 240.222 376.447 236.998 C 379.636 233.809 376.57 227.358 378.796 222.906 C 383.716 213.066 381.144 195.34 381.144 183.763 C 381.144 171.499 381.144 159.234 381.144 146.969 C 381.144 143.543 382.233 135.532 380.361 133.66 C 377.653 130.952 382.278 117.22 377.23 117.22"/>
    <path style="stroke-width: 5px; stroke: rgb(0, 0, 0); fill: rgb(255, 255, 255);" d="M 117.32 123.483 C 182.055 123.483 248.918 119.569 311.47 119.569 C 327.795 119.569 344.451 117.22 359.224 117.22 C 361.97 117.22 374.7 115.473 376.447 117.22 C 377.035 117.808 371.788 118.786 378.013 118.786"/>
  </g>
</svg>