<?xml version="1.0" encoding="utf-8"?>
<svg viewBox="0 0 500 500"
  xmlns="http://www.w3.org/2000/svg">
  <g>
    <title>mouth</title>
    <path style="stroke: rgb(0, 0, 0); fill: rgb(255, 255, 255); stroke-width: 5px;" d="M 203.435 294.147 C 207.408 290.173 207.67 284.431 211.264 280.838 C 217.087 275.015 221.907 298.377 229.269 291.015 C 233.716 286.569 234.148 276.05 240.229 273.009 C 246.982 269.633 251.821 283.818 254.321 286.318 C 255.578 287.576 261.008 285.111 261.367 284.752 C 265.682 280.437 270.245 275.091 274.675 270.661 C 278.41 266.926 286.037 282.023 287.201 283.186 C 287.723 283.708 297.604 285.31 298.944 283.969 C 299.302 283.611 301.63 278.044 302.075 278.489 C 305.023 281.437 306.611 302.137 302.858 305.889 C 301.136 307.612 286.811 309.414 284.852 307.455 C 284.037 306.64 279.216 293.52 276.241 296.495 C 273.501 299.235 277.415 308.63 274.675 311.369 C 267.558 318.486 251.15 312.895 244.926 306.672 C 242.447 304.193 242.708 298.974 240.229 296.495 C 239.937 296.202 233.476 296.202 233.184 296.495 C 229.503 300.176 228.482 309.812 226.138 314.501 C 225.69 315.396 219.079 316.053 218.309 315.284 C 214.656 311.631 210.22 308.76 206.566 305.107 C 202.638 301.178 211.736 288.667 203.435 288.667"/>
  </g>
</svg>