<?xml version="1.0" encoding="utf-8"?>
<svg viewBox="0 0 500 500"
  xmlns="http://www.w3.org/2000/svg">


  <g style="">
    <path style="stroke: rgb(0, 0, 0); fill: rgba(216, 216, 216, 0); stroke-width: 2px; transform-box: fill-box; transform-origin: 50% 50%;" d="M 445.781 167.262 C 444.907 169.01 437.945 177.431 441.084 180.57 C 444.119 183.605 446.887 204.516 442.65 208.753 C 433.561 217.842 420.946 224.977 411.336 234.588 C 410.238 235.685 399.593 241.633 399.593 241.633 C 399.593 241.633 399.366 236.38 399.593 236.153 C 404.836 230.91 397.119 213.575 402.724 207.97 C 405.04 205.654 402.848 197.669 405.073 195.445 C 409.122 191.395 408.204 180.669 408.204 172.742 C 408.204 154.463 400.518 130.325 412.119 118.724 C 413.325 117.517 424.824 102.464 430.907 108.547 C 435.897 113.537 435.249 117.23 438.736 124.204 C 440.235 127.202 438.028 134.457 440.301 136.73 C 445.662 142.09 445.781 161.226 445.781 170.393" transform="matrix(-1, 0, 0, -1, 0.000066, -0.000036)"/>
    <path style="stroke: rgb(0, 0, 0); fill: rgba(216, 216, 216, 0); stroke-width: 2px;" d="M 105.577 172.02 C 104.703 170.272 97.741 161.851 100.88 158.712 C 103.915 155.677 106.683 134.766 102.446 130.529 C 93.357 121.44 80.742 114.305 71.132 104.694 C 70.034 103.597 59.389 97.649 59.389 97.649 C 59.389 97.649 59.162 102.902 59.389 103.129 C 64.632 108.372 56.915 125.707 62.52 131.312 C 64.836 133.628 62.644 141.613 64.869 143.837 C 68.918 147.887 68 158.613 68 166.54 C 68 184.819 60.314 208.957 71.915 220.558 C 73.121 221.765 84.62 236.818 90.703 230.735 C 95.693 225.745 95.045 222.052 98.532 215.078 C 100.031 212.08 97.824 204.825 100.097 202.552 C 105.458 197.192 105.577 178.056 105.577 168.889"/>
    <path style="stroke: rgb(0, 0, 0); transform-box: fill-box; transform-origin: 50% 50%; fill: rgba(216, 216, 216, 0); stroke-width: 2px;" d="M 411.971 195.897 C 411.971 192.735 414.993 190.527 416.668 188.852 C 424.359 181.161 430.117 155.189 412.754 155.189" transform="matrix(-1, 0, 0, -1, -0.000018, 0.000016)"/>
    <path style="stroke: rgb(0, 0, 0); transform-box: fill-box; transform-origin: 50% 50%; fill: rgba(216, 216, 216, 0); stroke-width: 2px;" d="M 436.938 200.084 C 436.938 215.403 422.893 220.485 414.236 211.827 C 413.844 211.436 413.844 202.824 414.236 202.433 C 419.063 197.605 421.934 190.821 426.761 185.993 C 427.087 185.667 427.087 178.49 426.761 178.164 C 423.045 174.448 412.067 164.495 418.15 152.33 C 419.065 150.5 427.122 136.251 430.676 139.804 C 432.155 141.284 429.893 146.859 429.893 148.416" transform="matrix(-1, 0, 0, -1, -0.000037, -0.000005)"/>
    <path style="stroke: rgb(0, 0, 0); fill: rgba(216, 216, 216, 0); stroke-width: 2px;" d="M 94.617 154.015 C 94.617 138.696 80.572 133.614 71.915 142.272 C 71.523 142.663 71.523 151.275 71.915 151.666 C 76.742 156.494 79.613 163.278 84.44 168.106 C 84.766 168.432 84.766 175.609 84.44 175.935 C 80.724 179.651 69.746 189.604 75.829 201.769 C 76.744 203.599 84.801 217.848 88.355 214.295 C 89.834 212.815 87.572 207.24 87.572 205.683"/>
    <path style="stroke: rgb(0, 0, 0); fill: rgba(216, 216, 216, 0); stroke-width: 2px;" d="M 84.44 154.015 C 84.44 157.177 87.462 159.385 89.137 161.06 C 96.828 168.751 102.586 194.723 85.223 194.723"/>
  </g>
</svg>