<?xml version="1.0" encoding="utf-8"?>
<svg viewBox="0 0 500 500"
  xmlns="http://www.w3.org/2000/svg">
  <g style="">
    <path style="stroke: rgb(0, 0, 0); fill: rgb(255, 255, 255); stroke-width: 2px;" d="M 104.795 204.118 C 104.795 174.273 117.929 139.445 92.269 126.615 C 85.719 123.34 72.186 117.732 64.086 125.832 C 61.998 127.919 60.694 130.79 58.606 132.877 C 57.301 134.182 59.128 138.618 57.823 139.923 C 57.008 140.739 57.008 158.679 57.823 159.495 C 61.998 163.67 62.259 171.759 66.434 175.935 C 66.858 176.359 68.019 184.527 67.217 185.329 C 59.806 192.74 61.049 216.738 68 223.689 C 70.043 225.732 74.873 224.299 76.612 226.038 C 78.245 227.671 84.52 226.821 87.572 226.821 C 99.987 226.821 104.795 212.367 104.795 200.203"/>
    <path style="stroke: rgb(0, 0, 0); fill: rgb(255, 255, 255); stroke-width: 2px; transform-box: fill-box; transform-origin: 50% 50%;" d="M 443.964 144.6 C 443.964 174.445 457.098 209.273 431.438 222.103 C 424.888 225.378 411.355 230.986 403.255 222.886 C 401.167 220.799 399.863 217.928 397.775 215.841 C 396.47 214.536 398.297 210.1 396.992 208.795 C 396.177 207.979 396.177 190.039 396.992 189.223 C 401.167 185.048 401.428 176.959 405.603 172.783 C 406.027 172.359 407.188 164.191 406.386 163.389 C 398.975 155.978 400.218 131.98 407.169 125.029 C 409.212 122.986 414.042 124.419 415.781 122.68 C 417.414 121.047 423.689 121.897 426.741 121.897 C 439.156 121.897 443.964 136.351 443.964 148.515" transform="matrix(-1, 0, 0, -1, 0.000035, 0.000008)"/>
    <path style="stroke: rgb(0, 0, 0); fill: rgba(255, 192, 202, 0); transform-box: fill-box; transform-origin: 50% 50%; stroke-width: 2px;" d="M 411.971 195.897 C 411.971 192.735 414.993 190.527 416.668 188.852 C 424.359 181.161 430.117 155.189 412.754 155.189" transform="matrix(-1, 0, 0, -1, -0.000018, 0.000016)"/>
    <path style="stroke: rgb(0, 0, 0); fill: rgba(255, 192, 202, 0); transform-box: fill-box; transform-origin: 50% 50%; stroke-width: 2px;" d="M 436.938 200.084 C 436.938 215.403 422.893 220.485 414.236 211.827 C 413.844 211.436 413.844 202.824 414.236 202.433 C 419.063 197.605 421.934 190.821 426.761 185.993 C 427.087 185.667 427.087 178.49 426.761 178.164 C 423.045 174.448 412.067 164.495 418.15 152.33 C 419.065 150.5 427.122 136.251 430.676 139.804 C 432.155 141.284 429.893 146.859 429.893 148.416" transform="matrix(-1, 0, 0, -1, -0.000037, -0.000005)"/>
    <path style="stroke: rgb(0, 0, 0); fill: rgba(255, 192, 202, 0); stroke-width: 2px;" d="M 94.617 154.015 C 94.617 138.696 80.572 133.614 71.915 142.272 C 71.523 142.663 71.523 151.275 71.915 151.666 C 76.742 156.494 79.613 163.278 84.44 168.106 C 84.766 168.432 84.766 175.609 84.44 175.935 C 80.724 179.651 69.746 189.604 75.829 201.769 C 76.744 203.599 84.801 217.848 88.355 214.295 C 89.834 212.815 87.572 207.24 87.572 205.683"/>
    <path style="stroke: rgb(0, 0, 0); fill: rgba(255, 192, 202, 0); stroke-width: 2px;" d="M 84.44 154.015 C 84.44 157.177 87.462 159.385 89.137 161.06 C 96.828 168.751 102.586 194.723 85.223 194.723"/>

  </g>
</svg>