<?xml version="1.0" encoding="utf-8"?>
<svg viewBox="0 0 500 500"
  xmlns="http://www.w3.org/2000/svg">
  <g>
    <title>hair</title>
    <path style="stroke: rgb(0, 0, 0); fill: rgba(216, 216, 216, 0); stroke-width: 3px;" d="M 130.629 92.169 C 130.629 87.423 135.905 81.412 138.457 78.86 C 146.773 70.544 149.662 59.044 158.029 50.677 C 159.697 49.009 168.989 43.756 168.989 41.283"/>
    <path style="stroke: rgb(0, 0, 0); fill: rgba(216, 216, 216, 0); stroke-width: 3px;" d="M 141.197 96.475 C 141.197 91.729 146.473 85.718 149.025 83.166 C 157.341 74.85 160.23 63.35 168.597 54.983 C 170.265 53.315 179.557 48.062 179.557 45.589"/>
    <path style="stroke: rgb(0, 0, 0); fill: rgba(216, 216, 216, 0); stroke-width: 3px;" d="M 156.072 95.692 C 156.072 90.946 161.348 84.935 163.9 82.383 C 172.216 74.067 175.105 62.567 183.472 54.2 C 185.14 52.532 194.432 47.279 194.432 44.806"/>
    <path style="stroke: rgb(0, 0, 0); fill: rgba(216, 216, 216, 0); stroke-width: 3px;" d="M 171.729 97.257 C 171.729 92.511 177.005 86.5 179.557 83.948 C 187.873 75.632 190.762 64.132 199.129 55.765 C 200.797 54.097 210.089 48.844 210.089 46.371"/>
    <path style="stroke: rgb(0, 0, 0); fill: rgba(216, 216, 216, 0); stroke-width: 3px;" d="M 181.123 98.04 C 181.123 93.294 186.399 87.283 188.951 84.731 C 197.267 76.415 200.156 64.915 208.523 56.548 C 210.191 54.88 219.483 49.627 219.483 47.154"/>
    <path style="stroke: rgb(0, 0, 0); fill: rgba(216, 216, 216, 0); stroke-width: 3px;" d="M 196.781 97.258 C 196.781 92.512 202.057 86.501 204.609 83.949 C 212.925 75.633 215.814 64.133 224.181 55.766 C 225.849 54.098 235.141 48.845 235.141 46.372"/>
    <path style="stroke: rgb(0, 0, 0); fill: rgba(216, 216, 216, 0); stroke-width: 3px;" d="M 206.957 98.04 C 206.957 93.294 212.233 87.283 214.785 84.731 C 223.101 76.415 225.99 64.915 234.357 56.548 C 236.025 54.88 245.317 49.627 245.317 47.154"/>
    <path style="stroke: rgb(0, 0, 0); fill: rgba(216, 216, 216, 0); stroke-width: 3px;" d="M 220.266 98.04 C 220.266 93.294 225.542 87.283 228.094 84.731 C 236.41 76.415 239.299 64.915 247.666 56.548 C 249.334 54.88 258.626 49.627 258.626 47.154"/>
    <path style="stroke: rgb(0, 0, 0); fill: rgba(216, 216, 216, 0); stroke-width: 3px;" d="M 236.706 94.909 C 236.706 90.163 241.982 84.152 244.534 81.6 C 252.85 73.284 255.739 61.784 264.106 53.417 C 265.774 51.749 275.066 46.496 275.066 44.023"/>
    <path style="stroke: rgb(0, 0, 0); fill: rgba(216, 216, 216, 0); stroke-width: 3px;" d="M 245.318 95.692 C 245.318 90.946 250.594 84.935 253.146 82.383 C 261.462 74.067 264.351 62.567 272.718 54.2 C 274.386 52.532 283.678 47.279 283.678 44.806"/>
    <path style="stroke: rgb(0, 0, 0); fill: rgba(216, 216, 216, 0); stroke-width: 3px;" d="M 257.061 96.475 C 257.061 91.729 262.337 85.718 264.889 83.166 C 273.205 74.85 276.094 63.35 284.461 54.983 C 286.129 53.315 295.421 48.062 295.421 45.589"/>
    <path style="stroke: rgb(0, 0, 0); fill: rgba(216, 216, 216, 0); stroke-width: 3px;" d="M 266.455 94.909 C 266.455 90.163 271.731 84.152 274.283 81.6 C 282.599 73.284 285.488 61.784 293.855 53.417 C 295.523 51.749 304.815 46.496 304.815 44.023"/>
    <path style="stroke: rgb(0, 0, 0); fill: rgba(216, 216, 216, 0); stroke-width: 3px;" d="M 275.067 96.475 C 275.067 91.729 280.343 85.718 282.895 83.166 C 291.211 74.85 294.1 63.35 302.467 54.983 C 304.135 53.315 313.427 48.062 313.427 45.589"/>
    <path style="stroke: rgb(0, 0, 0); fill: rgba(216, 216, 216, 0); stroke-width: 3px;" d="M 282.113 99.606 C 282.113 94.86 287.389 88.849 289.941 86.297 C 298.257 77.981 301.146 66.481 309.513 58.114 C 311.181 56.446 320.473 51.193 320.473 48.72"/>
    <path style="stroke: rgb(0, 0, 0); fill: rgba(216, 216, 216, 0); stroke-width: 3px;" d="M 294.638 95.692 C 294.638 90.946 299.914 84.935 302.466 82.383 C 310.782 74.067 313.671 62.567 322.038 54.2 C 323.706 52.532 332.998 47.279 332.998 44.806"/>
    <path style="stroke: rgb(0, 0, 0); fill: rgba(216, 216, 216, 0); stroke-width: 3px;" d="M 309.513 93.343 C 309.513 88.597 314.789 82.586 317.341 80.034 C 325.657 71.718 328.546 60.218 336.913 51.851 C 338.581 50.183 347.873 44.93 347.873 42.457"/>
    <path style="stroke: rgb(0, 0, 0); fill: rgba(216, 216, 216, 0); stroke-width: 3px;" d="M 321.255 92.56 C 321.255 87.814 326.531 81.803 329.083 79.251 C 337.399 70.935 340.288 59.435 348.655 51.068 C 350.323 49.4 359.615 44.147 359.615 41.674"/>
    <path style="stroke: rgb(0, 0, 0); fill: rgba(216, 216, 216, 0); stroke-width: 3px;" d="M 331.433 92.56 C 331.433 87.814 336.709 81.803 339.261 79.251 C 347.577 70.935 350.466 59.435 358.833 51.068 C 360.501 49.4 369.793 44.147 369.793 41.674"/>
    <path style="stroke: rgb(0, 0, 0); fill: rgba(216, 216, 216, 0); stroke-width: 3px;" d="M 341.609 94.126 C 341.609 89.38 346.885 83.369 349.437 80.817 C 357.753 72.501 360.642 61.001 369.009 52.634 C 370.677 50.966 379.969 45.713 379.969 43.24"/>
    <path style="stroke: rgb(0, 0, 0); fill: rgba(216, 216, 216, 0); stroke-width: 3px;" d="M 352.57 92.561 C 352.57 87.815 357.846 81.804 360.398 79.252 C 368.714 70.936 371.603 59.436 379.97 51.069 C 381.638 49.401 390.93 44.148 390.93 41.675"/>
    <path style="stroke: rgb(0, 0, 0); fill: rgba(216, 216, 216, 0); stroke-width: 3px;" d="M 365.095 93.344 C 365.095 88.598 370.371 82.587 372.923 80.035 C 381.239 71.719 384.128 60.219 392.495 51.852 C 394.163 50.184 403.455 44.931 403.455 42.458"/>
  </g>
</svg>